<?xml version="1.0" encoding="UTF-8"?>
<svg width="577px" height="580px" viewBox="0 0 577 580" version="1.1" xmlns="http://www.w3.org/2000/svg" xmlns:xlink="http://www.w3.org/1999/xlink">
    <!-- Generator: Sketch 52.5 (67469) - http://www.bohemiancoding.com/sketch -->
    <title>logo</title>
    <desc>Created with Sketch.</desc>
    <g id="logo" stroke="none" stroke-width="1" fill="none" fill-rule="evenodd">
        <g transform="translate(33.000000, 34.000000)">
            <path d="M256,0 C115.300781,0 0,115.300781 0,256 C0,396.699219 115.300781,512 256,512 C396.699219,512 512,396.699219 512,256 C512,115.300781 396.699219,0 256,0 Z" id="Path" fill="#E2E2E7"></path>
            <path d="M512,256 C512,396.699219 396.699219,512 256,512 L256,0 C396.699219,0 512,115.300781 512,256 Z" id="Path" fill="#D3D3D8"></path>
            <path d="M481,256 C481,380.199219 380.199219,481 256,481 C131.800781,481 31,380.199219 31,256 C31,131.800781 131.800781,31 256,31 C380.199219,31 481,131.800781 481,256 Z" id="Path" fill="#ECECF1"></path>
            <path d="M481,256 C481,380.199219 380.199219,481 256,481 L256,31 C380.199219,31 481,131.800781 481,256 Z" id="Path" fill="#E2E2E7"></path>
            <path d="M397,115 L384.699219,113.800781 C380.800781,113.5 317.5,107.199219 256,118 C219.699219,124.601562 183.699219,137.199219 160.601562,160.601562 C101.800781,219.402344 101.800781,292.597656 160.601562,351.398438 C190,380.800781 223,395.5 256,395.5 C289,395.5 322,380.800781 351.398438,351.398438 C414.402344,288.402344 398.800781,133.597656 398.199219,127.300781 L397,115 Z" id="Path" fill="#7BDF49"></path>
            <path d="M256,395.5 L256,118 C317.5,107.199219 380.800781,113.5 384.699219,113.800781 L397,115 L398.199219,127.300781 C398.800781,133.597656 414.402344,288.402344 351.398438,351.398438 C322,380.800781 289,395.5 256,395.5 Z" id="Path" fill="#60C929"></path>
            <path d="M283.898438,249.402344 L324.402344,262.898438 L314.800781,291.398438 L260.199219,273.101562 L241.300781,292 L256,296.800781 L282.101562,305.5 L272.5,334 L256,328.601562 L217.597656,315.699219 C187,346.300781 171.097656,378.101562 185.5,421 L157,430.300781 C141.101562,383.5 151.902344,338.800781 196.300781,294.402344 L178,239.5 L206.5,229.898438 L220,270.699219 L238.898438,251.800781 L220.601562,197.199219 L249.101562,187.601562 L256,208.300781 L262.597656,228.101562 L309.097656,181.902344 L330.097656,202.902344 L283.898438,249.402344 Z" id="Path" fill="#60C929"></path>
            <g id="Group" transform="translate(256.000000, 181.000000)" fill="#52AF23">
                <polygon id="Path" points="0 115.800781 26.101562 124.5 16.5 153 0 147.597656"></polygon>
                <polygon id="Path" points="27.898438 68.402344 68.402344 81.898438 58.800781 110.398438 4.199219 92.101562 -2.84217094e-14 96.300781 -2.84217094e-14 27.300781 6.597656 47.101562 53.101562 0.902344 74.097656 21.898438"></polygon>
            </g>
        </g>
    </g>
</svg>